<svg width="44" height="27" viewBox="0 0 44 27" fill="none" xmlns="http://www.w3.org/2000/svg">
<path d="M12.4103 9.62517C12.4103 10.1753 12.4543 10.6153 12.5644 10.9894C12.6744 11.2534 12.8284 11.6055 13.0264 12.0015C13.1144 12.0896 13.1364 12.2216 13.1364 12.3316C13.1364 12.4856 13.0484 12.6176 12.8504 12.7717L11.9263 13.3878C11.7942 13.4758 11.6622 13.5198 11.5522 13.5198C11.3982 13.5198 11.2662 13.4318 11.1121 13.2997C10.9141 13.0797 10.7381 12.8597 10.584 12.6176C10.452 12.3756 10.298 12.0896 10.144 11.7595C8.9998 13.1017 7.56958 13.7838 5.83131 13.7838C4.59911 13.7838 3.63096 13.4318 2.90485 12.7277C2.20074 12.0235 1.82668 11.0774 1.82668 9.88921C1.82668 8.67902 2.26675 7.68887 3.14689 6.89675C4.04903 6.14863 5.23721 5.75257 6.73345 5.75257C7.23953 5.75257 7.7016 5.79658 8.29569 5.88459C8.80177 5.9506 9.39586 6.06062 9.96795 6.19264V5.13647C9.96795 4.0143 9.74792 3.28818 9.28584 2.78211C8.80177 2.32003 8.03165 2.122 6.90947 2.122C6.38139 2.122 5.85331 2.18801 5.32523 2.29803C4.77514 2.43005 4.24706 2.58408 3.74098 2.80411C3.49894 2.89212 3.30091 2.95813 3.2349 2.98014C3.12488 3.02414 3.05887 3.02414 2.99286 3.02414C2.79483 3.02414 2.68482 2.89212 2.68482 2.58407V1.85796C2.68482 1.63793 2.70682 1.4619 2.79483 1.35188C2.86084 1.24187 2.99286 1.15385 3.1909 1.08784C3.71898 0.779793 4.31307 0.559759 5.03918 0.383731C5.78562 0.185854 6.55536 0.0896383 7.32754 0.0976875C9.06581 0.0976875 10.342 0.493749 11.1561 1.28587C11.9703 2.078 12.3663 3.28818 12.3663 4.89443V9.62517H12.4103ZM6.46941 11.8695C6.95348 11.8695 7.43756 11.7815 7.96564 11.6055C8.49372 11.4295 8.95579 11.0994 9.35185 10.6593C9.59389 10.3733 9.76992 10.0652 9.90194 9.71319C9.90194 9.36113 10.012 8.94307 10.012 8.43699V7.84289C9.57189 7.68887 9.13182 7.68887 8.64774 7.57885C8.19456 7.52902 7.73936 7.49965 7.28353 7.49084C6.29338 7.49084 5.58927 7.68887 5.10519 8.08493C4.62112 8.48099 4.40108 9.03108 4.40108 9.75719C4.40108 10.4613 4.55511 10.9894 4.92917 11.3194C5.28122 11.6935 5.7873 11.8695 6.46941 11.8695ZM18.2192 13.4318C18.0061 13.4399 17.7942 13.3946 17.6031 13.2997C17.5371 13.1897 17.4271 12.9917 17.3391 12.7277L13.9066 1.41789C13.8185 1.08784 13.7745 0.933818 13.7745 0.823801C13.7745 0.581763 13.8846 0.449742 14.1266 0.449742H15.5568C15.8429 0.449742 16.0409 0.493749 16.1289 0.603766C16.2609 0.69178 16.3489 0.88981 16.437 1.17586L18.8793 10.8574L21.1677 1.17586C21.2337 0.88981 21.3217 0.69178 21.4537 0.603766C21.5638 0.515753 21.7618 0.449742 22.0038 0.449742H23.214C23.4781 0.449742 23.6761 0.493749 23.7861 0.603766C23.8961 0.69178 24.0061 0.88981 24.0721 1.17586L26.4045 10.9894L28.9129 1.17586C29.0009 0.88981 29.1109 0.69178 29.1989 0.603766C29.331 0.515753 29.507 0.449742 29.771 0.449742H31.1352C31.3773 0.449742 31.5093 0.581763 31.5093 0.823801C31.5093 0.889811 31.4873 0.977824 31.4653 1.08784C31.4653 1.08784 31.4213 1.26387 31.3773 1.41789L27.8347 12.7277C27.7467 13.0357 27.6587 13.1897 27.5047 13.2997C27.4167 13.3878 27.2186 13.4538 26.9766 13.4538H25.7224C25.4364 13.4538 25.3043 13.4098 25.1283 13.2997C24.9804 13.1429 24.8876 12.942 24.8643 12.7277L22.5979 3.28818L20.3316 12.7057C20.2656 12.9917 20.1775 13.1897 20.0675 13.2997C19.8863 13.3999 19.68 13.4457 19.4734 13.4318H18.2192ZM37.0322 13.8278C36.3061 13.8278 35.4919 13.7398 34.7658 13.5638C34.0397 13.3878 33.4676 13.1897 33.0936 12.9917C32.9022 12.9002 32.7416 12.7549 32.6315 12.5736C32.5711 12.4505 32.5409 12.3147 32.5435 12.1776V11.4295C32.5435 11.1214 32.6535 10.9894 32.8735 10.9894H33.1376C33.2256 10.9894 33.3576 11.0994 33.5116 11.1654C33.9957 11.3854 34.5458 11.5615 35.1179 11.6715C35.712 11.7815 36.3061 11.8475 36.8561 11.8475C37.7803 11.8475 38.5064 11.6935 38.9905 11.3634C39.4965 10.9894 39.7606 10.5713 39.7606 9.97723C39.7606 9.55916 39.6066 9.22911 39.3645 8.94306C39.1005 8.67902 38.5944 8.41498 37.8903 8.19495L35.756 7.53485C34.6998 7.18279 33.9077 6.69872 33.4236 6.03861C32.9512 5.42758 32.6957 4.67663 32.6975 3.90428C32.6975 3.28818 32.8295 2.7601 33.0936 2.29803C33.3576 1.81395 33.7096 1.41789 34.1057 1.08784C34.5898 0.75779 35.0739 0.515752 35.668 0.339724C36.24 0.163697 36.8561 0.0756836 37.5162 0.0756836C37.8243 0.0756836 38.1543 0.0976875 38.5064 0.141694C38.8144 0.185701 39.1225 0.251711 39.4305 0.295718C39.7386 0.383731 40.0026 0.449742 40.2667 0.537756C40.5307 0.625769 40.7067 0.713783 40.8828 0.801797C41.0808 0.911814 41.2348 1.02183 41.3228 1.15385C41.4108 1.28587 41.4549 1.4399 41.4549 1.63793V2.34204C41.4549 2.65009 41.3448 2.80411 41.1248 2.80411C41.0148 2.80411 40.8168 2.7381 40.5527 2.62808C39.7386 2.25402 38.7924 2.05599 37.7583 2.05599C36.9221 2.05599 36.3061 2.18801 35.8 2.47406C35.3599 2.7381 35.1179 3.17817 35.1179 3.77226C35.1179 4.19032 35.2719 4.54238 35.5579 4.80642C35.844 5.09246 36.3941 5.35651 37.1642 5.62055L39.2545 6.28065C40.3107 6.5887 41.0588 7.07277 41.5209 7.68887C41.9609 8.28296 42.181 8.96507 42.181 9.73519C42.181 10.3513 42.0489 10.9234 41.8069 11.4295C41.5429 11.9135 41.1908 12.3536 40.7067 12.7057C40.2887 13.0797 39.7386 13.3438 39.1225 13.5418C38.5064 13.7398 37.7583 13.8278 37.0322 13.8278ZM39.7826 20.9569C34.9638 24.4995 27.9668 26.3918 22.0038 26.3918C13.5325 26.3918 5.94132 23.2673 0.198429 18.0965C-0.263643 17.6784 0.154422 17.1283 0.704508 17.4584C6.90947 21.045 14.5447 23.2233 22.4659 23.2233C27.8127 23.2233 33.6876 22.1231 39.0785 19.7908C39.8926 19.4607 40.5747 20.3628 39.7826 20.9569ZM41.8069 18.6906C41.1688 17.8765 37.7143 18.2945 36.152 18.4705C35.69 18.5366 35.6239 18.1185 36.042 17.8104C38.7924 15.8961 43.3251 16.4902 43.8312 17.0843C44.3593 17.7444 43.6992 22.2771 41.1248 24.4335C40.7067 24.7635 40.3327 24.5875 40.5087 24.1914C41.1028 22.6952 42.401 19.4387 41.8069 18.6906Z" fill="#BB4DFF"/>
</svg>
