<svg width="40" height="41" viewBox="0 0 40 41" fill="none" xmlns="http://www.w3.org/2000/svg">
<g clip-path="url(#clip0_47_1089)">
<path d="M39.4977 18.5636C39.2414 18.2878 37.4023 16.0409 36.4109 14.83C35.8836 14.1862 35.4672 13.6776 35.2922 13.4667L35.2781 13.4495L35.2625 13.4331C34.8547 12.9776 34.275 12.4558 33.4047 12.4558C33.2632 12.4576 33.122 12.4691 32.982 12.4901C32.9531 12.494 32.9234 12.4987 32.8922 12.5019C32.7008 12.5229 32.1062 12.619 30.6937 12.8519C29.6 13.0308 27.9508 13.3026 27.7008 13.3261L27.6453 13.3308L27.5914 13.3409C26.8102 13.48 26.293 13.8269 26.0633 14.3714C25.9422 14.6589 25.8117 15.2425 26.293 15.9229C26.4125 16.0964 26.8266 16.6698 27.5383 17.655C28.0117 18.3112 28.5437 19.0472 29.0031 19.6862L20.3047 21.7183L11.7703 7.73779L11.7547 7.71123L11.7367 7.68545L11.7023 7.63467C11.3531 7.12217 10.9187 6.48389 9.66406 6.48389C9.57578 6.48389 9.48359 6.48389 9.38047 6.49248C9.02109 6.51201 7.70703 6.61514 6.18593 6.73545C4.50703 6.86748 2.20937 7.04795 1.91093 7.05576H1.8539L1.79218 7.06201C1.07812 7.13154 0.560153 7.42139 0.253122 7.92139C-0.258597 8.75654 0.142185 9.69404 0.273435 10.0019C0.536716 10.6245 2.93437 15.6792 5.04922 20.1409C6.45547 23.105 7.90703 26.1698 8.02578 26.4417C8.2346 26.9496 8.59211 27.3824 9.05138 27.6834C9.51065 27.9845 10.0502 28.1396 10.5992 28.1284C10.8583 28.1273 11.1165 28.0984 11.3695 28.0425H11.3859L11.4016 28.0386C12.4844 27.7745 15.9195 26.9026 18.3703 26.2737C18.5187 26.5331 18.675 26.8073 18.8391 27.0894C20.5523 30.0972 21.8 32.2729 22.2109 32.8284C22.4219 33.1245 23.0469 33.9839 24.2234 33.9839C24.65 33.9839 25.0406 33.8745 25.4531 33.7581L25.5727 33.7245H25.582C26.4047 33.4901 37.3547 29.6495 37.9156 29.4003L37.9328 29.3925C38.3578 29.2042 39 28.9198 39.1969 28.1894C39.3258 27.7112 39.2109 27.2261 38.8547 26.7472L38.8492 26.7401L38.8437 26.7331C38.7773 26.6472 38.5312 26.3261 38.1977 25.8815C37.4844 24.9386 36.332 23.4151 35.3195 22.0894C36.6766 21.7378 38.3508 21.2995 38.7086 21.187C39.6047 20.919 39.8758 20.3519 39.9586 20.0362C40.0203 19.7901 40.1008 19.1612 39.4977 18.5636ZM14.4977 23.1097C13.1062 23.4354 12.1367 23.6628 11.5375 23.805C11.0164 22.7628 9.99531 20.7073 8.99843 18.7011C6.675 14.0198 5.475 11.6097 4.84375 10.3495L5.48047 10.2948C6.52265 10.205 7.95 10.0823 8.74453 10.0159C10.0539 12.2237 14.5508 19.805 16.268 22.6956L14.4977 23.1097ZM28.4164 28.3159C26.525 28.9409 25.5 29.2823 24.9461 29.4675C24.4539 28.6597 23.3711 26.8487 22.4094 25.2339L31.4484 22.9308C31.8391 23.4628 32.5867 24.4714 34.0625 26.4409C32.6508 26.9128 30.2969 27.6925 28.4164 28.3159ZM32.7812 18.8136L30.925 16.3503C31.993 16.1636 32.6078 16.0558 32.968 15.9909L33.9055 17.1534L34.8383 18.3112C34.1977 18.4667 33.4523 18.6487 32.7812 18.8136Z" fill="#BB4DFF"/>
</g>
<defs>
<clipPath id="clip0_47_1089">
<rect width="40" height="40" fill="white" transform="translate(0 0.233887)"/>
</clipPath>
</defs>
</svg>
