<svg width="44" height="40" viewBox="0 0 44 40" fill="none" xmlns="http://www.w3.org/2000/svg">
<path d="M22.0588 15.9224C24.1392 15.9224 25.8359 17.6191 25.8359 19.74C25.8359 21.7598 24.1392 23.4767 22.0588 23.4767C19.9783 23.4767 18.2816 21.7598 18.2816 19.74C18.2816 17.6191 19.9783 15.9224 22.0588 15.9224ZM12.7067 35.899C13.9792 36.6666 16.7667 35.495 19.9783 32.4652C18.9279 31.2735 17.8978 29.9808 16.9283 28.6274C15.3005 28.4717 13.6823 28.2289 12.0805 27.9003C11.0504 32.2228 11.4342 35.192 12.7067 35.899ZM14.1408 24.3049L13.5551 23.2747C13.3329 23.8605 13.1107 24.4463 12.9693 25.0118C13.5147 25.133 14.1206 25.234 14.7468 25.335L14.1408 24.3049ZM27.3508 22.7698L28.9869 19.74L27.3508 16.7101C26.7449 15.6396 26.0985 14.6903 25.5127 13.7409C24.422 13.6803 23.2707 13.6803 22.0588 13.6803C20.8468 13.6803 19.6955 13.6803 18.6048 13.7409C18.019 14.6903 17.3726 15.6396 16.7667 16.7101L15.1306 19.74L16.7667 22.7698C17.3726 23.8403 18.019 24.7897 18.6048 25.739C19.6955 25.7996 20.8468 25.7996 22.0588 25.7996C23.2707 25.7996 24.422 25.7996 25.5127 25.739C26.0985 24.7897 26.7449 23.8403 27.3508 22.7698ZM22.0588 9.19618C21.675 9.64055 21.271 10.1051 20.867 10.6505H23.2505C22.8465 10.1051 22.4425 9.64055 22.0588 9.19618ZM22.0588 30.2837C22.4425 29.8394 22.8465 29.3748 23.2505 28.8294H20.867C21.271 29.3748 21.675 29.8394 22.0588 30.2837ZM31.3906 3.58091C30.1383 2.81336 27.3508 3.98489 24.1392 7.01471C25.1896 8.20644 26.2197 9.49916 27.1892 10.8525C28.8455 11.0141 30.4817 11.2565 32.037 11.5796C33.0671 7.25709 32.6833 4.28787 31.3906 3.58091ZM29.9767 15.175L30.5624 16.2052C30.7846 15.6194 31.0068 15.0336 31.1482 14.4681C30.6028 14.3469 29.9969 14.2459 29.3707 14.1449L29.9767 15.175ZM32.9055 0.934867C35.8747 2.63157 36.1979 7.0955 34.9456 12.3068C40.0761 13.8217 43.7725 16.3264 43.7725 19.74C43.7725 23.1536 40.0761 25.6582 34.9456 27.1731C36.1979 32.3844 35.8747 36.8483 32.9055 38.545C29.9565 40.2417 25.9369 38.3027 22.0588 34.6063C18.1806 38.3027 14.161 40.2417 11.1918 38.545C8.24277 36.8483 7.91958 32.3844 9.17191 27.1731C4.04141 25.6582 0.345032 23.1536 0.345032 19.74C0.345032 16.3264 4.04141 13.8217 9.17191 12.3068C7.91958 7.0955 8.24277 2.63157 11.1918 0.934867C14.161 -0.761833 18.1806 1.17725 22.0588 4.87363C25.9369 1.17725 29.9565 -0.761833 32.9055 0.934867ZM32.3197 19.74C33.0065 21.2549 33.6125 22.7698 34.1174 24.3049C38.3592 23.0324 40.7426 21.2145 40.7426 19.74C40.7426 18.2654 38.3592 16.4476 34.1174 15.175C33.6125 16.7101 33.0065 18.225 32.3197 19.74ZM11.7978 19.74C11.111 18.225 10.505 16.7101 10.0001 15.175C5.75831 16.4476 3.37485 18.2654 3.37485 19.74C3.37485 21.2145 5.75831 23.0324 10.0001 24.3049C10.505 22.7698 11.111 21.2549 11.7978 19.74ZM29.9767 24.3049L29.3707 25.335C29.9969 25.234 30.6028 25.133 31.1482 25.0118C31.0068 24.4463 30.7846 23.8605 30.5624 23.2747L29.9767 24.3049ZM24.1392 32.4652C27.3508 35.495 30.1383 36.6666 31.3906 35.899C32.6833 35.192 33.0671 32.2228 32.037 27.9003C30.4817 28.2235 28.8455 28.4658 27.1892 28.6274C26.2197 29.9808 25.1896 31.2735 24.1392 32.4652ZM14.1408 15.175L14.7468 14.1449C14.1206 14.2459 13.5147 14.3469 12.9693 14.4681C13.1107 15.0336 13.3329 15.6194 13.5551 16.2052L14.1408 15.175ZM19.9783 7.01471C16.7667 3.98489 13.9792 2.81336 12.7067 3.58091C11.4342 4.28787 11.0504 7.25709 12.0805 11.5796C13.6823 11.251 15.3005 11.0083 16.9283 10.8525C17.8978 9.49916 18.9279 8.20644 19.9783 7.01471Z" fill="#BB4DFF"/>
</svg>
