<svg width="44" height="44" viewBox="0 0 44 44" fill="none" xmlns="http://www.w3.org/2000/svg">
<g clip-path="url(#clip0_46_1076)">
<path d="M29.7643 30.7075C28.4743 31.8112 25.8997 32.5619 22.9345 32.5619C19.2938 32.5619 16.2426 31.4295 15.4328 29.9048C15.1443 30.7792 15.078 31.7789 15.078 32.4167C15.078 32.4167 14.8881 35.5522 17.0686 37.7344C17.0686 36.6021 17.9877 35.683 19.12 35.683C21.0604 35.683 21.0586 37.3761 21.0568 38.7503V38.8739C21.0568 40.9594 22.3307 42.7457 24.1439 43.5C23.8647 42.9255 23.7201 42.2951 23.721 41.6564C23.721 39.6676 24.8892 38.9277 26.2473 38.0677C27.3258 37.3815 28.5263 36.6218 29.3522 35.0935C29.7976 34.2717 30.0304 33.3515 30.0295 32.4167C30.0297 31.8367 29.9403 31.2602 29.7643 30.7075ZM28.8273 1.575C29.1784 2.01217 29.3576 2.59983 29.7159 3.77696L37.5419 29.482C34.6024 27.9566 31.4474 26.8885 28.1858 26.3143L23.0921 9.1C23.0514 8.9627 22.9673 8.84229 22.8524 8.75679C22.7375 8.67129 22.598 8.62531 22.4548 8.62571C22.3115 8.62611 22.1723 8.67289 22.0579 8.75903C21.9435 8.84518 21.86 8.96606 21.8201 9.10358L16.7855 26.309C13.5094 26.8806 10.3402 27.9507 7.38818 29.482L15.2518 3.77337C15.6101 2.59804 15.7893 2.01038 16.1423 1.575C16.4523 1.19057 16.8558 0.892014 17.314 0.707833C17.8336 0.5 18.4463 0.5 19.6754 0.5H25.2923C26.5214 0.5 27.1377 0.5 27.6573 0.709625C28.114 0.8939 28.5179 1.19177 28.8273 1.575Z" fill="#BB4DFF"/>
</g>
<defs>
<clipPath id="clip0_46_1076">
<rect width="43" height="43" fill="white" transform="translate(0.965088 0.5)"/>
</clipPath>
</defs>
</svg>
