<svg width="34" height="25" viewBox="0 0 34 25" fill="none" xmlns="http://www.w3.org/2000/svg">
<path fill-rule="evenodd" clip-rule="evenodd" d="M1.09735 0.795644C0.912686 0.795644 0.884277 0.866666 0.884277 1.07973V24.0911C0.884277 24.2616 0.955301 24.3752 1.13996 24.3752H5.58598C5.79905 24.3752 5.87007 24.2758 5.87007 24.0911V16.9888H7.91553C13.4695 16.9888 17.9865 14.503 17.9865 8.65076C17.9865 4.7161 15.4581 0.682007 8.17121 0.682007C6.06535 0.682007 3.89243 0.732296 2.32847 0.768491C1.85643 0.779416 1.43985 0.789057 1.09735 0.795644ZM7.88702 12.5854C6.87857 12.5854 6.48085 12.5854 5.87007 12.557V5.11383C6.19678 5.07121 7.17689 5.0428 8.32746 5.0428C11.4667 5.0428 13.015 6.49167 13.015 8.76439C13.015 11.7189 10.7422 12.5854 7.88712 12.5854H7.88702ZM25.0178 11.3212C25.0178 10.7104 25.5718 10.0996 27.2621 10.0996C28.8814 10.0996 30.728 10.54 31.907 11.1508C32.1201 11.2502 32.2621 11.1081 32.2621 10.8951V7.28712C32.2763 7.08825 32.1769 6.9036 32.0064 6.81837C31.1116 6.37803 29.4496 6.09394 27.3189 6.09394C22.5604 6.09394 20.2877 8.807 20.2877 11.6195C20.2877 14.2189 21.6229 15.9519 25.6996 17.4718C27.8303 18.2672 28.4411 18.7786 28.4411 19.4604C28.4411 20.2133 27.6741 20.682 25.9837 20.682C24.3644 20.682 22.3473 20.2843 20.6854 19.2331C20.5434 19.1195 20.4013 19.2331 20.4013 19.4462V23.3383C20.4013 23.5087 20.5008 23.665 20.657 23.736C21.765 24.3468 23.6826 24.7445 25.8843 24.7445C30.6428 24.7445 33.3133 22.4718 33.3133 19.0485C33.3133 16.4775 31.9354 14.7871 27.5746 13.1962C25.4865 12.4008 25.0178 11.932 25.0178 11.3212Z" fill="#BB4DFF"/>
</svg>
