<svg width="46" height="40" viewBox="0 0 46 40" fill="none" xmlns="http://www.w3.org/2000/svg">
<path d="M16.3991 0.551856C15.3467 0.538188 14.4584 0.934533 14.0894 1.69989L13.8844 2.12357C13.2967 3.35361 14.267 5.03466 16.0438 5.88202L22.6586 9.05279L3.82538 11.6632C1.85731 11.9365 0.42227 13.2349 0.613609 14.588L0.681944 15.0526C0.873284 16.4057 2.59534 17.2667 4.5634 16.9934L16.2488 15.3807C16.2078 15.4217 16.1804 15.449 16.1394 15.49L2.37666 30.9611C1.05096 32.4372 0.818615 34.3642 1.82998 35.2663L2.18532 35.5806C3.19669 36.4826 5.08275 36.018 6.39479 34.5419L14.021 25.9726C15.0871 33.6809 21.7156 39.4347 29.5605 39.4484C38.2255 39.4484 45.264 32.4645 45.264 23.8542C45.2503 18.7291 42.7219 13.9319 38.4715 11.0345C38.1024 10.6518 37.6241 10.2965 37.0637 10.0368L18.4082 1.05754C17.7248 0.71586 17.0278 0.551856 16.3991 0.551856ZM29.5605 13.7816C35.1094 13.7816 39.6195 18.2781 39.6195 23.8406C39.6195 29.3894 35.123 33.8996 29.5605 33.8996C24.0117 33.8996 19.5015 29.4031 19.5015 23.8406C19.5015 18.2781 24.0117 13.7816 29.5605 13.7816ZM29.5605 17.3624C25.9934 17.3624 23.096 20.2598 23.096 23.8269C23.096 27.394 25.9934 30.2914 29.5605 30.2914C33.1276 30.2914 36.025 27.394 36.025 23.8269C36.025 20.2598 33.1276 17.3624 29.5605 17.3624Z" fill="#BB4DFF"/>
</svg>
