<svg width="31" height="42" viewBox="0 0 31 42" fill="none" xmlns="http://www.w3.org/2000/svg">
<path d="M30.4651 33.7776L16.7776 41.3713C15.8401 41.8588 14.9026 41.8588 13.9651 41.3713L0.465149 33.7776L24.9339 9.12134L25.5901 8.93384C26.1526 8.93384 26.4714 9.17759 26.5276 9.68384L30.4651 33.7776ZM10.4964 9.49634L1.96515 23.6526L5.52765 1.24634C5.5839 0.740088 5.90265 0.496338 6.46515 0.496338C6.84015 0.496338 7.0839 0.608838 7.21515 0.965088L11.2464 8.37134L10.4964 9.49634ZM18.9339 11.8588L1.02765 29.8401L14.6214 6.77759C14.8089 6.40259 15.0901 6.23384 15.4651 6.23384C15.8401 6.23384 16.0839 6.40259 16.2151 6.77759L18.9339 11.8588Z" fill="#BB4DFF"/>
</svg>
