<svg width="31" height="26" viewBox="0 0 31 26" fill="none" xmlns="http://www.w3.org/2000/svg">
<path fill-rule="evenodd" clip-rule="evenodd" d="M27.9027 0.280518C26.2602 0.280518 25.056 1.43535 25.056 3.05893C25.056 4.75495 26.151 5.87285 27.8667 5.87285C29.5825 5.87285 30.7134 4.75495 30.7134 3.05893C30.7134 1.43535 29.6543 0.280518 27.9027 0.280518ZM25.5978 7.79046C25.3836 7.79046 25.3104 7.89415 25.3104 8.07455V25.3942C25.3104 25.6115 25.421 25.7194 25.6754 25.7194H30.0466C30.3383 25.7194 30.3743 25.6115 30.3743 25.3942V8.07455C30.3743 7.86148 30.3067 7.79046 30.0869 7.79046H25.5978ZM5.49022 25.4311L7.24189 20.0902L15.6697 20.0859L17.5378 25.4623C17.5636 25.5451 17.6185 25.6161 17.6925 25.6624C17.7665 25.7088 17.8548 25.7275 17.9416 25.7152H22.6836C22.902 25.7152 22.9394 25.5703 22.8661 25.3899L14.5791 2.29614C14.5475 2.11575 14.4742 2.08023 14.2917 2.08023H8.45182C8.38932 2.08636 8.3316 2.11604 8.29066 2.16313C8.24972 2.21021 8.2287 2.27107 8.23196 2.33307C8.15437 3.70381 8.01067 4.13705 7.86697 4.53336L0.567155 25.3544C0.525482 25.5731 0.598768 25.7152 0.854549 25.7152H5.0893C5.17882 25.7198 5.26726 25.6942 5.34011 25.6426C5.41296 25.5909 5.4659 25.5164 5.49022 25.4311ZM13.4001 12.657C13.7528 13.7593 14.0799 14.7814 14.3247 15.5802H8.55672C8.63956 15.3254 8.72521 15.0624 8.81291 14.7931C9.72925 11.9797 10.8709 8.47441 11.4034 6.27057H11.4407C11.9011 7.97276 12.701 10.4724 13.4001 12.657Z" fill="#BB4DFF"/>
</svg>
