<svg width="44" height="44" viewBox="0 0 44 44" fill="none" xmlns="http://www.w3.org/2000/svg">
<path d="M32.9826 11.5765C34.1265 11.8426 35.166 12.4416 35.9698 13.2978C36.4126 13.7612 36.797 14.277 37.1147 14.8337C37.1294 14.8942 35.0533 16.289 33.7942 17.067C33.7486 17.0979 33.5672 16.9004 33.3616 16.5967C33.1315 16.2014 32.8051 15.8707 32.4126 15.6357C32.0202 15.4008 31.5746 15.2691 31.1175 15.253C29.6703 15.1535 28.7377 15.9114 28.7444 17.1786C28.7319 17.4899 28.8029 17.7989 28.95 18.0735C29.2685 18.7319 29.8597 19.127 31.7168 19.9319C35.1353 21.4033 36.6027 22.3735 37.5084 23.7522C38.0203 24.6233 38.3356 25.5958 38.4322 26.6016C38.5287 27.6073 38.4042 28.6221 38.0674 29.5747C37.6044 30.6193 36.8703 31.5211 35.9412 32.1862C35.0121 32.8514 33.9219 33.2557 32.7837 33.3573C31.5739 33.4961 30.3516 33.4835 29.1449 33.3197C27.2965 33.016 25.5939 32.1289 24.2859 30.7881C23.7916 30.2316 23.3732 29.6121 23.0416 28.9458C23.181 28.842 23.3279 28.7486 23.481 28.6663C23.6933 28.5454 24.4968 28.0831 25.2547 27.6437L26.6307 26.8374L26.9183 27.2567C27.4026 27.9493 28.0191 28.5393 28.7323 28.9928C29.4526 29.3879 30.2685 29.5751 31.089 29.5336C31.9095 29.4921 32.7023 29.2234 33.379 28.7577C33.7281 28.4174 33.9463 27.9652 33.9955 27.4802C34.0446 26.9952 33.9215 26.5084 33.6478 26.1051C33.2769 25.5743 32.519 25.1282 30.365 24.1943C28.676 23.6248 27.1376 22.6808 25.8648 21.4329C25.2586 20.7422 24.811 19.9271 24.5533 19.045C24.3627 18.0402 24.3346 17.0112 24.47 15.9974C24.7228 14.8308 25.3282 13.7702 26.2041 12.9592C27.08 12.1482 28.184 11.6261 29.3666 11.4636C30.5708 11.3197 31.7898 11.3578 32.9826 11.5765ZM21.7717 13.5693L21.7865 15.5231H15.5649V33.1907H11.1776V15.5271H4.95603V13.6082C4.93948 12.9511 4.95742 12.2935 5.00978 11.6383C5.03262 11.6074 8.81528 11.5926 13.4015 11.6007L21.7475 11.6235L21.7717 13.5693Z" fill="#BB4DFF"/>
</svg>
