<svg width="25" height="38" viewBox="0 0 25 38" fill="none" xmlns="http://www.w3.org/2000/svg">
<path d="M6.40461 37.2687C9.80696 37.2687 12.565 34.5423 12.565 31.1791V25.0895H6.40461C3.00227 25.0895 0.244202 27.816 0.244202 31.1791C0.244202 34.5423 3.00227 37.2687 6.40461 37.2687Z" fill="#BB4DFF"/>
<path d="M0.244202 19C0.244202 15.6368 3.00227 12.9104 6.40461 12.9104H12.565V25.0896H6.40461C3.00227 25.0896 0.244202 22.3631 0.244202 19Z" fill="#CF82FF"/>
<path d="M0.244202 6.82083C0.244202 3.45759 3.00227 0.731201 6.40461 0.731201H12.565V12.9104H6.40461C3.00227 12.9104 0.244202 10.1839 0.244202 6.82083Z" fill="#BB4DFF"/>
<path d="M12.565 0.731201H18.7254C22.1278 0.731201 24.8858 3.45759 24.8858 6.82083C24.8858 10.1839 22.1278 12.9104 18.7254 12.9104H12.565V0.731201Z" fill="#CF82FF"/>
<path d="M24.8858 19C24.8858 22.3631 22.1278 25.0896 18.7254 25.0896C15.3231 25.0896 12.565 22.3631 12.565 19C12.565 15.6368 15.3231 12.9104 18.7254 12.9104C22.1278 12.9104 24.8858 15.6368 24.8858 19Z" fill="#BB4DFF"/>
</svg>
