<svg width="55" height="55" viewBox="0 0 55 55" fill="none" xmlns="http://www.w3.org/2000/svg">
<path d="M49.9813 23.4897C49.8438 23.398 48.6979 22.5043 46.2229 22.5043C45.5813 22.5043 44.9396 22.573 44.2979 22.6876C43.8167 19.4793 41.1354 17.8522 41.0208 17.7834L40.3563 17.3938L39.9438 18.0126C39.3938 18.8376 38.9583 19.7772 38.775 20.7397C38.3167 22.573 38.5917 24.3147 39.5313 25.8043C38.4083 26.4459 36.575 26.6063 36.1854 26.6063H6.00418C5.22501 26.6063 4.58334 27.248 4.58334 28.0501C4.58334 30.6855 4.99584 33.3209 5.91251 35.7959C6.94376 38.523 8.50209 40.5397 10.4958 41.7772C12.7417 43.1522 16.4313 43.9313 20.625 43.9313C22.4354 43.9313 24.3146 43.7709 26.1708 43.4272C28.7375 42.9688 31.2125 42.0751 33.4813 40.7688C35.3602 39.6944 37.042 38.3071 38.4542 36.6668C40.8604 33.9855 42.2813 30.9376 43.3125 28.3022H43.7479C46.3604 28.3022 47.9875 27.248 48.8813 26.3543C49.4771 25.8043 49.9125 25.1397 50.2333 24.3605L50.4167 23.8105L49.9813 23.4897ZM8.82293 25.7584H12.8563C13.0396 25.7584 13.2229 25.598 13.2229 25.3918V21.7709C13.2229 21.5876 13.0625 21.4043 12.8563 21.4043H8.82293C8.61668 21.4043 8.45626 21.5647 8.45626 21.7709V25.3918C8.47918 25.598 8.61668 25.7584 8.82293 25.7584ZM14.3917 25.7584H18.425C18.6083 25.7584 18.7917 25.598 18.7917 25.3918V21.7709C18.7917 21.5876 18.6313 21.4043 18.425 21.4043H14.3917C14.1854 21.4043 14.025 21.5647 14.025 21.7709V25.3918C14.0479 25.598 14.1854 25.7584 14.3917 25.7584ZM20.0521 25.7584H24.0625C24.2917 25.7584 24.4521 25.598 24.4521 25.3918V21.7709C24.4521 21.5876 24.3146 21.4043 24.0625 21.4043H20.0521C19.8688 21.4043 19.7083 21.5647 19.7083 21.7709V25.3918C19.7083 25.598 19.8458 25.7584 20.0521 25.7584ZM25.6438 25.7584H29.7C29.8833 25.7584 30.0438 25.598 30.0438 25.3918V21.7709C30.0438 21.5876 29.9063 21.4043 29.7 21.4043H25.6438C25.4604 21.4043 25.3 21.5647 25.3 21.7709V25.3918C25.3 25.598 25.4604 25.7584 25.6438 25.7584ZM14.3917 20.6251H18.425C18.6083 20.6251 18.7917 20.4188 18.7917 20.2126V16.6147C18.7917 16.4084 18.6313 16.248 18.425 16.248H14.3917C14.1854 16.248 14.025 16.3855 14.025 16.6147V20.2126C14.0479 20.4188 14.1854 20.6251 14.3917 20.6251ZM20.0521 20.6251H24.0625C24.2917 20.6251 24.4521 20.4188 24.4521 20.2126V16.6147C24.4521 16.4084 24.3146 16.248 24.0625 16.248H20.0521C19.8688 16.248 19.7083 16.3855 19.7083 16.6147V20.2126C19.7083 20.4188 19.8458 20.6251 20.0521 20.6251ZM25.6438 20.6251H29.7C29.8833 20.6251 30.0438 20.4188 30.0438 20.2126V16.6147C30.0438 16.4084 29.8833 16.248 29.7 16.248H25.6438C25.4604 16.248 25.3 16.3855 25.3 16.6147V20.2126C25.3 20.4188 25.4604 20.6251 25.6438 20.6251ZM25.6438 15.4001H29.7C29.8833 15.4001 30.0438 15.2397 30.0438 15.0334V11.4584C30.0438 11.2293 29.8833 11.0688 29.7 11.0688H25.6438C25.4604 11.0688 25.3 11.2063 25.3 11.4584V15.0334C25.3 15.2168 25.4604 15.4001 25.6438 15.4001ZM31.2813 25.7584H35.3146C35.5208 25.7584 35.6813 25.598 35.6813 25.3918V21.7709C35.6813 21.5876 35.5208 21.4043 35.3146 21.4043H31.2813C31.0979 21.4043 30.9375 21.5647 30.9375 21.7709V25.3918C30.9375 25.598 31.0979 25.7584 31.2813 25.7584Z" fill="#BB4DFF"/>
</svg>
