{
	"asset":{
		"generator":"Khronos glTF Blender I/O v3.6.27",
		"version":"2.0"
	},
	"scene":0,
	"scenes":[
		{
			"name":"Scene",
			"nodes":[
				0
			]
		}
	],
	"nodes":[
		{
			"mesh":0,
			"name":"JS",
			"rotation":[
				0.7071068286895752,
				0,
				0,
				0.7071068286895752
			],
			"scale":[
				39.612449645996094,
				39.612449645996094,
				39.612449645996094
			]
		}
	],
	"materials":[
		{
			"doubleSided":true,
			"name":"black",
			"pbrMetallicRoughness":{
				"baseColorFactor":[
					0,
					0,
					0,
					1
				],
				"metallicFactor":0,
				"roughnessFactor":0.5
			}
		},
		{
			"doubleSided":true,
			"name":"yellow",
			"pbrMetallicRoughness":{
				"baseColorFactor":[
					1,
					0.5425755977630615,
					0,
					1
				],
				"metallicFactor":0,
				"roughnessFactor":0.5
			}
		}
	],
	"meshes":[
		{
			"name":"Curve.021",
			"primitives":[
				{
					"attributes":{
						"POSITION":0,
						"NORMAL":1,
						"TEXCOORD_0":2
					},
					"indices":3,
					"material":0
				},
				{
					"attributes":{
						"POSITION":4,
						"NORMAL":5,
						"TEXCOORD_0":6
					},
					"indices":7,
					"material":1
				}
			]
		}
	],
	"accessors":[
		{
			"bufferView":0,
			"componentType":5126,
			"count":1984,
			"max":[
				0.010138159617781639,
				0.0015923354076221585,
				0.007623202167451382
			],
			"min":[
				-0.013109668157994747,
				-0.0015404456062242389,
				-0.008889375254511833
			],
			"type":"VEC3"
		},
		{
			"bufferView":1,
			"componentType":5126,
			"count":1984,
			"type":"VEC3"
		},
		{
			"bufferView":2,
			"componentType":5126,
			"count":1984,
			"type":"VEC2"
		},
		{
			"bufferView":3,
			"componentType":5123,
			"count":4032,
			"type":"SCALAR"
		},
		{
			"bufferView":4,
			"componentType":5126,
			"count":24,
			"max":[
				0.012934895232319832,
				-4.674346564570442e-05,
				0.010407272726297379
			],
			"min":[
				-0.022395534440875053,
				-0.004337899386882782,
				-0.024915974587202072
			],
			"type":"VEC3"
		},
		{
			"bufferView":5,
			"componentType":5126,
			"count":24,
			"type":"VEC3"
		},
		{
			"bufferView":6,
			"componentType":5126,
			"count":24,
			"type":"VEC2"
		},
		{
			"bufferView":7,
			"componentType":5123,
			"count":36,
			"type":"SCALAR"
		}
	],
	"bufferViews":[
		{
			"buffer":0,
			"byteLength":23808,
			"byteOffset":0,
			"target":34962
		},
		{
			"buffer":0,
			"byteLength":23808,
			"byteOffset":23808,
			"target":34962
		},
		{
			"buffer":0,
			"byteLength":15872,
			"byteOffset":47616,
			"target":34962
		},
		{
			"buffer":0,
			"byteLength":8064,
			"byteOffset":63488,
			"target":34963
		},
		{
			"buffer":0,
			"byteLength":288,
			"byteOffset":71552,
			"target":34962
		},
		{
			"buffer":0,
			"byteLength":288,
			"byteOffset":71840,
			"target":34962
		},
		{
			"buffer":0,
			"byteLength":192,
			"byteOffset":72128,
			"target":34962
		},
		{
			"buffer":0,
			"byteLength":72,
			"byteOffset":72320,
			"target":34963
		}
	],
	"buffers":[
		{
			"byteLength":72392,
			"uri":"data:application/octet-stream;base64,"
		}
	]
}
