{
	"asset":{
		"generator":"Khronos glTF Blender I/O v3.6.27",
		"version":"2.0"
	},
	"scene":0,
	"scenes":[
		{
			"name":"Scene",
			"nodes":[
				0,
				1
			]
		}
	],
	"nodes":[
		{
			"mesh":0,
			"name":"\u5e73\u9762.002",
			"scale":[
				1.0631346702575684,
				1.0631346702575684,
				1.0631346702575684
			],
			"translation":[
				0.004099369049072266,
				5.128157138824463,
				0.0023733973503112793
			]
		},
		{
			"name":"\u7acb\u65b9\u4f53.001",
			"rotation":[
				0.24086791276931763,
				0.906815230846405,
				-0.02628895454108715,
				0.344931423664093
			],
			"scale":[
				1.1962335109710693,
				0.04530773311853409,
				1.1962335109710693
			],
			"translation":[
				-7.960758209228516,
				4.245419979095459,
				1.3174680471420288
			]
		}
	],
	"materials":[
		{
			"doubleSided":true,
			"name":"\u9ed2",
			"pbrMetallicRoughness":{
				"baseColorFactor":[
					0.016682468354701996,
					0.016682468354701996,
					0.016682468354701996,
					1
				],
				"metallicFactor":0
			}
		},
		{
			"doubleSided":true,
			"name":"\u808c",
			"pbrMetallicRoughness":{
				"baseColorFactor":[
					0.8000000715255737,
					0.3826877474784851,
					0.22365672886371613,
					1
				],
				"metallicFactor":0
			}
		},
		{
			"doubleSided":true,
			"name":"\u767d",
			"pbrMetallicRoughness":{
				"baseColorFactor":[
					0.9683271646499634,
					0.9664232134819031,
					1,
					1
				],
				"metallicFactor":0
			}
		},
		{
			"doubleSided":true,
			"name":"\u7d2b",
			"pbrMetallicRoughness":{
				"baseColorFactor":[
					0.5709315538406372,
					0.2882464826107025,
					1,
					1
				],
				"metallicFactor":0
			}
		},
		{
			"doubleSided":true,
			"name":"\u7070\u8272",
			"pbrMetallicRoughness":{
				"baseColorFactor":[
					0.4338657855987549,
					0.4338657855987549,
					0.4338657855987549,
					1
				],
				"metallicFactor":0
			}
		}
	],
	"meshes":[
		{
			"name":"\u5e73\u9762.002",
			"primitives":[
				{
					"attributes":{
						"POSITION":0,
						"NORMAL":1,
						"TEXCOORD_0":2
					},
					"indices":3,
					"material":0
				},
				{
					"attributes":{
						"POSITION":4,
						"NORMAL":5,
						"TEXCOORD_0":6
					},
					"indices":7,
					"material":1
				},
				{
					"attributes":{
						"POSITION":8,
						"NORMAL":9,
						"TEXCOORD_0":10
					},
					"indices":11,
					"material":2
				},
				{
					"attributes":{
						"POSITION":12,
						"NORMAL":13,
						"TEXCOORD_0":14
					},
					"indices":15,
					"material":3
				},
				{
					"attributes":{
						"POSITION":16,
						"NORMAL":17,
						"TEXCOORD_0":18
					},
					"indices":19,
					"material":4
				}
			]
		}
	],
	"accessors":[
		{
			"bufferView":0,
			"componentType":5126,
			"count":78755,
			"max":[
				1.0386072397232056,
				1.558591604232788,
				1.7202714681625366
			],
			"min":[
				-1.038607120513916,
				-4.604119777679443,
				-1.553886890411377
			],
			"type":"VEC3"
		},
		{
			"bufferView":1,
			"componentType":5126,
			"count":78755,
			"type":"VEC3"
		},
		{
			"bufferView":2,
			"componentType":5126,
			"count":78755,
			"type":"VEC2"
		},
		{
			"bufferView":3,
			"componentType":5125,
			"count":139428,
			"type":"SCALAR"
		},
		{
			"bufferView":4,
			"componentType":5126,
			"count":25100,
			"max":[
				1.5656472444534302,
				1.2050673961639404,
				1.5767909288406372
			],
			"min":[
				-2.2165956497192383,
				-4.451333999633789,
				-1.4500389099121094
			],
			"type":"VEC3"
		},
		{
			"bufferView":5,
			"componentType":5126,
			"count":25100,
			"type":"VEC3"
		},
		{
			"bufferView":6,
			"componentType":5126,
			"count":25100,
			"type":"VEC2"
		},
		{
			"bufferView":7,
			"componentType":5123,
			"count":126216,
			"type":"SCALAR"
		},
		{
			"bufferView":8,
			"componentType":5126,
			"count":1651,
			"max":[
				1.153048038482666,
				0.9887055158615112,
				2.6080374717712402
			],
			"min":[
				-4.113888740539551,
				-3.4534201622009277,
				-0.6176856160163879
			],
			"type":"VEC3"
		},
		{
			"bufferView":9,
			"componentType":5126,
			"count":1651,
			"type":"VEC3"
		},
		{
			"bufferView":10,
			"componentType":5126,
			"count":1651,
			"type":"VEC2"
		},
		{
			"bufferView":11,
			"componentType":5123,
			"count":8082,
			"type":"SCALAR"
		},
		{
			"bufferView":12,
			"componentType":5126,
			"count":827,
			"max":[
				0.7592301368713379,
				1.0688879489898682,
				2.681230306625366
			],
			"min":[
				-4.074461460113525,
				-3.8050379753112793,
				-0.7893490791320801
			],
			"type":"VEC3"
		},
		{
			"bufferView":13,
			"componentType":5126,
			"count":827,
			"type":"VEC3"
		},
		{
			"bufferView":14,
			"componentType":5126,
			"count":827,
			"type":"VEC2"
		},
		{
			"bufferView":15,
			"componentType":5123,
			"count":4038,
			"type":"SCALAR"
		},
		{
			"bufferView":16,
			"componentType":5126,
			"count":5904,
			"max":[
				-1.9751826524734497,
				-0.3232857584953308,
				2.240817070007324
			],
			"min":[
				-3.820241689682007,
				-1.3289194107055664,
				0.31791430711746216
			],
			"type":"VEC3"
		},
		{
			"bufferView":17,
			"componentType":5126,
			"count":5904,
			"type":"VEC3"
		},
		{
			"bufferView":18,
			"componentType":5126,
			"count":5904,
			"type":"VEC2"
		},
		{
			"bufferView":19,
			"componentType":5123,
			"count":9348,
			"type":"SCALAR"
		}
	],
	"bufferViews":[
		{
			"buffer":0,
			"byteLength":945060,
			"byteOffset":0,
			"target":34962
		},
		{
			"buffer":0,
			"byteLength":945060,
			"byteOffset":945060,
			"target":34962
		},
		{
			"buffer":0,
			"byteLength":630040,
			"byteOffset":1890120,
			"target":34962
		},
		{
			"buffer":0,
			"byteLength":557712,
			"byteOffset":2520160,
			"target":34963
		},
		{
			"buffer":0,
			"byteLength":301200,
			"byteOffset":3077872,
			"target":34962
		},
		{
			"buffer":0,
			"byteLength":301200,
			"byteOffset":3379072,
			"target":34962
		},
		{
			"buffer":0,
			"byteLength":200800,
			"byteOffset":3680272,
			"target":34962
		},
		{
			"buffer":0,
			"byteLength":252432,
			"byteOffset":3881072,
			"target":34963
		},
		{
			"buffer":0,
			"byteLength":19812,
			"byteOffset":4133504,
			"target":34962
		},
		{
			"buffer":0,
			"byteLength":19812,
			"byteOffset":4153316,
			"target":34962
		},
		{
			"buffer":0,
			"byteLength":13208,
			"byteOffset":4173128,
			"target":34962
		},
		{
			"buffer":0,
			"byteLength":16164,
			"byteOffset":4186336,
			"target":34963
		},
		{
			"buffer":0,
			"byteLength":9924,
			"byteOffset":4202500,
			"target":34962
		},
		{
			"buffer":0,
			"byteLength":9924,
			"byteOffset":4212424,
			"target":34962
		},
		{
			"buffer":0,
			"byteLength":6616,
			"byteOffset":4222348,
			"target":34962
		},
		{
			"buffer":0,
			"byteLength":8076,
			"byteOffset":4228964,
			"target":34963
		},
		{
			"buffer":0,
			"byteLength":70848,
			"byteOffset":4237040,
			"target":34962
		},
		{
			"buffer":0,
			"byteLength":70848,
			"byteOffset":4307888,
			"target":34962
		},
		{
			"buffer":0,
			"byteLength":47232,
			"byteOffset":4378736,
			"target":34962
		},
		{
			"buffer":0,
			"byteLength":18696,
			"byteOffset":4425968,
			"target":34963
		}
	],
	"buffers":[
		{
			"byteLength":4444664,
			"uri":"man.bin"
		}
	]
}
