{
	"asset":{
		"generator":"Khronos glTF Blender I/O v3.6.27",
		"version":"2.0"
	},
	"scene":0,
	"scenes":[
		{
			"name":"Scene",
			"nodes":[
				0
			]
		}
	],
	"nodes":[
		{
			"mesh":0,
			"name":"Curve",
			"rotation":[
				0.7071068286895752,
				-1.870711457740981e-05,
				-1.8937520508188754e-05,
				0.7071068286895752
			],
			"scale":[
				73.91236877441406,
				73.91236877441406,
				73.91236877441406
			]
		}
	],
	"materials":[
		{
			"doubleSided":true,
			"name":"SVGMat.020",
			"pbrMetallicRoughness":{
				"baseColorFactor":[
					0.015208514407277107,
					0.015208514407277107,
					0.015208514407277107,
					1
				],
				"metallicFactor":0,
				"roughnessFactor":0.4000000059604645
			}
		}
	],
	"meshes":[
		{
			"name":"Curve.002",
			"primitives":[
				{
					"attributes":{
						"POSITION":0,
						"NORMAL":1,
						"TEXCOORD_0":2
					},
					"indices":3,
					"material":0
				}
			]
		}
	],
	"accessors":[
		{
			"bufferView":0,
			"componentType":5126,
			"count":1098,
			"max":[
				0.005521917250007391,
				0,
				0.00534415990114212
			],
			"min":[
				-0.005767203401774168,
				-0.002720949472859502,
				-0.005942575633525848
			],
			"type":"VEC3"
		},
		{
			"bufferView":1,
			"componentType":5126,
			"count":1098,
			"type":"VEC3"
		},
		{
			"bufferView":2,
			"componentType":5126,
			"count":1098,
			"type":"VEC2"
		},
		{
			"bufferView":3,
			"componentType":5123,
			"count":2460,
			"type":"SCALAR"
		}
	],
	"bufferViews":[
		{
			"buffer":0,
			"byteLength":13176,
			"byteOffset":0,
			"target":34962
		},
		{
			"buffer":0,
			"byteLength":13176,
			"byteOffset":13176,
			"target":34962
		},
		{
			"buffer":0,
			"byteLength":8784,
			"byteOffset":26352,
			"target":34962
		},
		{
			"buffer":0,
			"byteLength":4920,
			"byteOffset":35136,
			"target":34963
		}
	],
	"buffers":[
		{
			"byteLength":40056,
			"uri":"data:application/octet-stream;base64,"
		}
	]
}
