{
	"asset":{
		"generator":"Khronos glTF Blender I/O v3.6.27",
		"version":"2.0"
	},
	"scene":0,
	"scenes":[
		{
			"name":"Scene",
			"nodes":[
				0
			]
		}
	],
	"nodes":[
		{
			"mesh":0,
			"name":"original-2",
			"rotation":[
				0.7071068286895752,
				0,
				0,
				0.7071068286895752
			],
			"scale":[
				39.742401123046875,
				39.742408752441406,
				39.742401123046875
			]
		}
	],
	"materials":[
		{
			"doubleSided":true,
			"name":"\u30a2\u30a4\u30b3\u30f3\u6c34\u8272",
			"pbrMetallicRoughness":{
				"baseColorFactor":[
					0,
					0.19461756944656372,
					0.603827178478241,
					1
				],
				"metallicFactor":0,
				"roughnessFactor":0.5
			}
		},
		{
			"doubleSided":true,
			"name":"\u767d",
			"pbrMetallicRoughness":{
				"baseColorFactor":[
					0.9683271646499634,
					0.9664232134819031,
					1,
					1
				],
				"metallicFactor":0,
				"roughnessFactor":0.5
			}
		}
	],
	"meshes":[
		{
			"name":"original-2.001",
			"primitives":[
				{
					"attributes":{
						"POSITION":0,
						"NORMAL":1,
						"TEXCOORD_0":2
					},
					"indices":3,
					"material":0
				},
				{
					"attributes":{
						"POSITION":4,
						"NORMAL":5,
						"TEXCOORD_0":6
					},
					"indices":7,
					"material":1
				}
			]
		}
	],
	"accessors":[
		{
			"bufferView":0,
			"componentType":5126,
			"count":28,
			"max":[
				0.010773207992315292,
				0.00028518724138848484,
				0.012083976529538631
			],
			"min":[
				-0.024505291134119034,
				-0.0027963111642748117,
				-0.023187071084976196
			],
			"type":"VEC3"
		},
		{
			"bufferView":1,
			"componentType":5126,
			"count":28,
			"type":"VEC3"
		},
		{
			"bufferView":2,
			"componentType":5126,
			"count":28,
			"type":"VEC2"
		},
		{
			"bufferView":3,
			"componentType":5123,
			"count":48,
			"type":"SCALAR"
		},
		{
			"bufferView":4,
			"componentType":5126,
			"count":2034,
			"max":[
				0.007939446717500687,
				0.0011545963352546096,
				0.009164675138890743
			],
			"min":[
				-0.016783734783530235,
				-0.001118308398872614,
				-0.007088468410074711
			],
			"type":"VEC3"
		},
		{
			"bufferView":5,
			"componentType":5126,
			"count":2034,
			"type":"VEC3"
		},
		{
			"bufferView":6,
			"componentType":5126,
			"count":2034,
			"type":"VEC2"
		},
		{
			"bufferView":7,
			"componentType":5123,
			"count":4128,
			"type":"SCALAR"
		}
	],
	"bufferViews":[
		{
			"buffer":0,
			"byteLength":336,
			"byteOffset":0,
			"target":34962
		},
		{
			"buffer":0,
			"byteLength":336,
			"byteOffset":336,
			"target":34962
		},
		{
			"buffer":0,
			"byteLength":224,
			"byteOffset":672,
			"target":34962
		},
		{
			"buffer":0,
			"byteLength":96,
			"byteOffset":896,
			"target":34963
		},
		{
			"buffer":0,
			"byteLength":24408,
			"byteOffset":992,
			"target":34962
		},
		{
			"buffer":0,
			"byteLength":24408,
			"byteOffset":25400,
			"target":34962
		},
		{
			"buffer":0,
			"byteLength":16272,
			"byteOffset":49808,
			"target":34962
		},
		{
			"buffer":0,
			"byteLength":8256,
			"byteOffset":66080,
			"target":34963
		}
	],
	"buffers":[
		{
			"byteLength":74336,
			"uri":"data:application/octet-stream;base64,"
		}
	]
}
