{
	"asset":{
		"generator":"Khronos glTF Blender I/O v3.6.27",
		"version":"2.0"
	},
	"scene":0,
	"scenes":[
		{
			"name":"Scene",
			"nodes":[
				0
			]
		}
	],
	"nodes":[
		{
			"mesh":0,
			"name":"AI",
			"rotation":[
				0.7071068286895752,
				0,
				0,
				0.7071068286895752
			],
			"scale":[
				9.343093872070312,
				9.343093872070312,
				9.343093872070312
			]
		}
	],
	"materials":[
		{
			"doubleSided":true,
			"name":"black",
			"pbrMetallicRoughness":{
				"baseColorFactor":[
					0.025393642485141754,
					0.025393642485141754,
					0.025393642485141754,
					1
				],
				"metallicFactor":0,
				"roughnessFactor":0.5
			}
		},
		{
			"doubleSided":true,
			"name":"01",
			"pbrMetallicRoughness":{
				"baseColorFactor":[
					1,
					0.14731146395206451,
					0.05206365883350372,
					1
				],
				"metallicFactor":0,
				"roughnessFactor":0.5
			}
		}
	],
	"meshes":[
		{
			"name":"Curve.007",
			"primitives":[
				{
					"attributes":{
						"POSITION":0,
						"NORMAL":1,
						"TEXCOORD_0":2
					},
					"indices":3,
					"material":0
				},
				{
					"attributes":{
						"POSITION":4,
						"NORMAL":5,
						"TEXCOORD_0":6
					},
					"indices":7,
					"material":1
				}
			]
		}
	],
	"accessors":[
		{
			"bufferView":0,
			"componentType":5126,
			"count":312,
			"max":[
				0.05919788032770157,
				0.0022570888977497816,
				0.060395583510398865
			],
			"min":[
				-0.06272461265325546,
				-0.011445083655416965,
				-0.057880938053131104
			],
			"type":"VEC3"
		},
		{
			"bufferView":1,
			"componentType":5126,
			"count":312,
			"type":"VEC3"
		},
		{
			"bufferView":2,
			"componentType":5126,
			"count":312,
			"type":"VEC2"
		},
		{
			"bufferView":3,
			"componentType":5123,
			"count":612,
			"type":"SCALAR"
		},
		{
			"bufferView":4,
			"componentType":5126,
			"count":2082,
			"max":[
				0.026089683175086975,
				0.004714450798928738,
				0.02236492931842804
			],
			"min":[
				-0.03314044326543808,
				-0.003476756392046809,
				-0.028168603777885437
			],
			"type":"VEC3"
		},
		{
			"bufferView":5,
			"componentType":5126,
			"count":2082,
			"type":"VEC3"
		},
		{
			"bufferView":6,
			"componentType":5126,
			"count":2082,
			"type":"VEC2"
		},
		{
			"bufferView":7,
			"componentType":5123,
			"count":4608,
			"type":"SCALAR"
		}
	],
	"bufferViews":[
		{
			"buffer":0,
			"byteLength":3744,
			"byteOffset":0,
			"target":34962
		},
		{
			"buffer":0,
			"byteLength":3744,
			"byteOffset":3744,
			"target":34962
		},
		{
			"buffer":0,
			"byteLength":2496,
			"byteOffset":7488,
			"target":34962
		},
		{
			"buffer":0,
			"byteLength":1224,
			"byteOffset":9984,
			"target":34963
		},
		{
			"buffer":0,
			"byteLength":24984,
			"byteOffset":11208,
			"target":34962
		},
		{
			"buffer":0,
			"byteLength":24984,
			"byteOffset":36192,
			"target":34962
		},
		{
			"buffer":0,
			"byteLength":16656,
			"byteOffset":61176,
			"target":34962
		},
		{
			"buffer":0,
			"byteLength":9216,
			"byteOffset":77832,
			"target":34963
		}
	],
	"buffers":[
		{
			"byteLength":87048,
			"uri":"data:application/octet-stream;base64,"
		}
	]
}
