{
	"asset":{
		"generator":"Khronos glTF Blender I/O v3.6.27",
		"version":"2.0"
	},
	"scene":0,
	"scenes":[
		{
			"name":"Scene",
			"nodes":[
				0
			]
		}
	],
	"nodes":[
		{
			"mesh":0,
			"name":"blender",
			"rotation":[
				0.7071068286895752,
				0,
				0,
				0.7071068286895752
			],
			"scale":[
				10.060797691345215,
				10.060797691345215,
				10.060797691345215
			]
		}
	],
	"materials":[
		{
			"doubleSided":true,
			"name":"01",
			"pbrMetallicRoughness":{
				"baseColorFactor":[
					0.00019680822151713073,
					0.0004934289027005434,
					0.022804658859968185,
					1
				],
				"metallicFactor":0,
				"roughnessFactor":0.5
			}
		},
		{
			"doubleSided":true,
			"name":"02",
			"pbrMetallicRoughness":{
				"baseColorFactor":[
					1,
					0.0292796790599823,
					0,
					1
				],
				"metallicFactor":0,
				"roughnessFactor":0.5
			}
		}
	],
	"meshes":[
		{
			"name":"rect4193.001",
			"primitives":[
				{
					"attributes":{
						"POSITION":0,
						"NORMAL":1,
						"TEXCOORD_0":2
					},
					"indices":3,
					"material":0
				},
				{
					"attributes":{
						"POSITION":4,
						"NORMAL":5,
						"TEXCOORD_0":6
					},
					"indices":7,
					"material":1
				}
			]
		}
	],
	"accessors":[
		{
			"bufferView":0,
			"componentType":5126,
			"count":453,
			"max":[
				0.06777141988277435,
				0.0022989108692854643,
				0.062053896486759186
			],
			"min":[
				-0.059202954173088074,
				-0.009604259394109249,
				-0.06489365547895432
			],
			"type":"VEC3"
		},
		{
			"bufferView":1,
			"componentType":5126,
			"count":453,
			"type":"VEC3"
		},
		{
			"bufferView":2,
			"componentType":5126,
			"count":453,
			"type":"VEC2"
		},
		{
			"bufferView":3,
			"componentType":5123,
			"count":1008,
			"type":"SCALAR"
		},
		{
			"bufferView":4,
			"componentType":5126,
			"count":1752,
			"max":[
				0.050414398312568665,
				0.004780887626111507,
				0.0387750118970871
			],
			"min":[
				-0.041819605976343155,
				-0.004097555764019489,
				-0.04153010994195938
			],
			"type":"VEC3"
		},
		{
			"bufferView":5,
			"componentType":5126,
			"count":1752,
			"type":"VEC3"
		},
		{
			"bufferView":6,
			"componentType":5126,
			"count":1752,
			"type":"VEC2"
		},
		{
			"bufferView":7,
			"componentType":5123,
			"count":3840,
			"type":"SCALAR"
		}
	],
	"bufferViews":[
		{
			"buffer":0,
			"byteLength":5436,
			"byteOffset":0,
			"target":34962
		},
		{
			"buffer":0,
			"byteLength":5436,
			"byteOffset":5436,
			"target":34962
		},
		{
			"buffer":0,
			"byteLength":3624,
			"byteOffset":10872,
			"target":34962
		},
		{
			"buffer":0,
			"byteLength":2016,
			"byteOffset":14496,
			"target":34963
		},
		{
			"buffer":0,
			"byteLength":21024,
			"byteOffset":16512,
			"target":34962
		},
		{
			"buffer":0,
			"byteLength":21024,
			"byteOffset":37536,
			"target":34962
		},
		{
			"buffer":0,
			"byteLength":14016,
			"byteOffset":58560,
			"target":34962
		},
		{
			"buffer":0,
			"byteLength":7680,
			"byteOffset":72576,
			"target":34963
		}
	],
	"buffers":[
		{
			"byteLength":80256,
			"uri":"data:application/octet-stream;base64,"
		}
	]
}
