{
	"asset":{
		"generator":"Khronos glTF Blender I/O v3.6.27",
		"version":"2.0"
	},
	"scene":0,
	"scenes":[
		{
			"name":"Scene",
			"nodes":[
				0
			]
		}
	],
	"nodes":[
		{
			"mesh":0,
			"name":"Curve",
			"rotation":[
				0.7071068286895752,
				0,
				0,
				0.7071068286895752
			],
			"scale":[
				63.85773849487305,
				63.85773849487305,
				63.85773849487305
			]
		}
	],
	"materials":[
		{
			"doubleSided":true,
			"name":"SVGMat.022",
			"pbrMetallicRoughness":{
				"baseColorFactor":[
					0.016807375475764275,
					0.30054378509521484,
					0.838798999786377,
					1
				],
				"metallicFactor":0,
				"roughnessFactor":0.4000000059604645
			}
		}
	],
	"meshes":[
		{
			"name":"Curve.003",
			"primitives":[
				{
					"attributes":{
						"POSITION":0,
						"NORMAL":1,
						"TEXCOORD_0":2
					},
					"indices":3,
					"material":0
				}
			]
		}
	],
	"accessors":[
		{
			"bufferView":0,
			"componentType":5126,
			"count":5425,
			"max":[
				0.00730355316773057,
				0,
				0.006430591456592083
			],
			"min":[
				-0.006220607552677393,
				-0.001399768516421318,
				-0.003727470524609089
			],
			"type":"VEC3"
		},
		{
			"bufferView":1,
			"componentType":5126,
			"count":5425,
			"type":"VEC3"
		},
		{
			"bufferView":2,
			"componentType":5126,
			"count":5425,
			"type":"VEC2"
		},
		{
			"bufferView":3,
			"componentType":5123,
			"count":12096,
			"type":"SCALAR"
		}
	],
	"bufferViews":[
		{
			"buffer":0,
			"byteLength":65100,
			"byteOffset":0,
			"target":34962
		},
		{
			"buffer":0,
			"byteLength":65100,
			"byteOffset":65100,
			"target":34962
		},
		{
			"buffer":0,
			"byteLength":43400,
			"byteOffset":130200,
			"target":34962
		},
		{
			"buffer":0,
			"byteLength":24192,
			"byteOffset":173600,
			"target":34963
		}
	],
	"buffers":[
		{
			"byteLength":197792,
			"uri":"data:application/octet-stream;base64,"
		}
	]
}
