{
	"asset":{
		"generator":"Khronos glTF Blender I/O v3.6.27",
		"version":"2.0"
	},
	"scene":0,
	"scenes":[
		{
			"name":"Scene",
			"nodes":[
				0
			]
		}
	],
	"nodes":[
		{
			"mesh":0,
			"name":"Figma"
		}
	],
	"materials":[
		{
			"doubleSided":true,
			"name":"\u30a2\u30a4\u30b3\u30f3\u9ed2",
			"pbrMetallicRoughness":{
				"baseColorFactor":[
					0.016682468354701996,
					0.016682468354701996,
					0.016682468354701996,
					1
				],
				"metallicFactor":0,
				"roughnessFactor":0.5
			}
		},
		{
			"doubleSided":true,
			"name":"01",
			"pbrMetallicRoughness":{
				"baseColorFactor":[
					0.0030346380081027746,
					0.6239603161811829,
					0.226965993642807,
					1
				],
				"metallicFactor":0,
				"roughnessFactor":0.5
			}
		},
		{
			"doubleSided":true,
			"name":"02",
			"pbrMetallicRoughness":{
				"baseColorFactor":[
					0.36130616068840027,
					0.09989824891090393,
					1,
					1
				],
				"metallicFactor":0,
				"roughnessFactor":0.5
			}
		},
		{
			"doubleSided":true,
			"name":"03",
			"pbrMetallicRoughness":{
				"baseColorFactor":[
					0.8879233002662659,
					0.07618516683578491,
					0.012983073480427265,
					1
				],
				"metallicFactor":0,
				"roughnessFactor":0.5
			}
		},
		{
			"doubleSided":true,
			"name":"04",
			"pbrMetallicRoughness":{
				"baseColorFactor":[
					1,
					0.168269082903862,
					0.12213882058858871,
					1
				],
				"metallicFactor":0,
				"roughnessFactor":0.5
			}
		},
		{
			"doubleSided":true,
			"name":"05",
			"pbrMetallicRoughness":{
				"baseColorFactor":[
					0.010328809730708599,
					0.5028859376907349,
					0.9911020398139954,
					1
				],
				"metallicFactor":0,
				"roughnessFactor":0.5
			}
		}
	],
	"meshes":[
		{
			"name":"Curve.015",
			"primitives":[
				{
					"attributes":{
						"POSITION":0,
						"NORMAL":1,
						"TEXCOORD_0":2,
						"TEXCOORD_1":3
					},
					"indices":4,
					"material":0
				},
				{
					"attributes":{
						"POSITION":5,
						"NORMAL":6,
						"TEXCOORD_0":7,
						"TEXCOORD_1":8
					},
					"indices":9,
					"material":1
				},
				{
					"attributes":{
						"POSITION":10,
						"NORMAL":11,
						"TEXCOORD_0":12,
						"TEXCOORD_1":13
					},
					"indices":14,
					"material":2
				},
				{
					"attributes":{
						"POSITION":15,
						"NORMAL":16,
						"TEXCOORD_0":17,
						"TEXCOORD_1":18
					},
					"indices":19,
					"material":3
				},
				{
					"attributes":{
						"POSITION":20,
						"NORMAL":21,
						"TEXCOORD_0":22,
						"TEXCOORD_1":23
					},
					"indices":24,
					"material":4
				},
				{
					"attributes":{
						"POSITION":25,
						"NORMAL":26,
						"TEXCOORD_0":27,
						"TEXCOORD_1":28
					},
					"indices":29,
					"material":5
				}
			]
		}
	],
	"accessors":[
		{
			"bufferView":0,
			"componentType":5126,
			"count":288,
			"max":[
				0.7270779609680176,
				0.6684578061103821,
				0.05996217578649521
			],
			"min":[
				-0.6672911643981934,
				-0.7256525158882141,
				-0.10516823083162308
			],
			"type":"VEC3"
		},
		{
			"bufferView":1,
			"componentType":5126,
			"count":288,
			"type":"VEC3"
		},
		{
			"bufferView":2,
			"componentType":5126,
			"count":288,
			"type":"VEC2"
		},
		{
			"bufferView":3,
			"componentType":5126,
			"count":288,
			"type":"VEC2"
		},
		{
			"bufferView":4,
			"componentType":5123,
			"count":564,
			"type":"SCALAR"
		},
		{
			"bufferView":5,
			"componentType":5126,
			"count":276,
			"max":[
				0.09707161784172058,
				-0.16440406441688538,
				0.0817306637763977
			],
			"min":[
				-0.18180230259895325,
				-0.47142139077186584,
				-0.07144693285226822
			],
			"type":"VEC3"
		},
		{
			"bufferView":6,
			"componentType":5126,
			"count":276,
			"type":"VEC3"
		},
		{
			"bufferView":7,
			"componentType":5126,
			"count":276,
			"type":"VEC2"
		},
		{
			"bufferView":8,
			"componentType":5126,
			"count":276,
			"type":"VEC2"
		},
		{
			"bufferView":9,
			"componentType":5123,
			"count":576,
			"type":"SCALAR"
		},
		{
			"bufferView":10,
			"componentType":5126,
			"count":220,
			"max":[
				0.06168339028954506,
				0.10721207410097122,
				0.0817306786775589
			],
			"min":[
				-0.24538186192512512,
				-0.19980500638484955,
				-0.07144691795110703
			],
			"type":"VEC3"
		},
		{
			"bufferView":11,
			"componentType":5126,
			"count":220,
			"type":"VEC3"
		},
		{
			"bufferView":12,
			"componentType":5126,
			"count":220,
			"type":"VEC2"
		},
		{
			"bufferView":13,
			"componentType":5126,
			"count":220,
			"type":"VEC2"
		},
		{
			"bufferView":14,
			"componentType":5123,
			"count":444,
			"type":"SCALAR"
		},
		{
			"bufferView":15,
			"componentType":5126,
			"count":223,
			"max":[
				-0.0018964075716212392,
				0.3788316547870636,
				0.0817306861281395
			],
			"min":[
				-0.3089616596698761,
				0.0718139261007309,
				-0.07144690304994583
			],
			"type":"VEC3"
		},
		{
			"bufferView":16,
			"componentType":5126,
			"count":223,
			"type":"VEC3"
		},
		{
			"bufferView":17,
			"componentType":5126,
			"count":223,
			"type":"VEC2"
		},
		{
			"bufferView":18,
			"componentType":5126,
			"count":223,
			"type":"VEC2"
		},
		{
			"bufferView":19,
			"componentType":5123,
			"count":444,
			"type":"SCALAR"
		},
		{
			"bufferView":20,
			"componentType":5126,
			"count":235,
			"max":[
				0.2415885627269745,
				0.41423001885414124,
				0.0817306861281395
			],
			"min":[
				-0.0654764473438263,
				0.10721207410097122,
				-0.07144690304994583
			],
			"type":"VEC3"
		},
		{
			"bufferView":21,
			"componentType":5126,
			"count":235,
			"type":"VEC3"
		},
		{
			"bufferView":22,
			"componentType":5126,
			"count":235,
			"type":"VEC2"
		},
		{
			"bufferView":23,
			"componentType":5126,
			"count":235,
			"type":"VEC2"
		},
		{
			"bufferView":24,
			"componentType":5123,
			"count":444,
			"type":"SCALAR"
		},
		{
			"bufferView":25,
			"componentType":5126,
			"count":288,
			"max":[
				0.30516859889030457,
				0.14261043071746826,
				0.0817306786775589
			],
			"min":[
				0.026294443756341934,
				-0.13621170818805695,
				-0.07144691795110703
			],
			"type":"VEC3"
		},
		{
			"bufferView":26,
			"componentType":5126,
			"count":288,
			"type":"VEC3"
		},
		{
			"bufferView":27,
			"componentType":5126,
			"count":288,
			"type":"VEC2"
		},
		{
			"bufferView":28,
			"componentType":5126,
			"count":288,
			"type":"VEC2"
		},
		{
			"bufferView":29,
			"componentType":5123,
			"count":564,
			"type":"SCALAR"
		}
	],
	"bufferViews":[
		{
			"buffer":0,
			"byteLength":3456,
			"byteOffset":0,
			"target":34962
		},
		{
			"buffer":0,
			"byteLength":3456,
			"byteOffset":3456,
			"target":34962
		},
		{
			"buffer":0,
			"byteLength":2304,
			"byteOffset":6912,
			"target":34962
		},
		{
			"buffer":0,
			"byteLength":2304,
			"byteOffset":9216,
			"target":34962
		},
		{
			"buffer":0,
			"byteLength":1128,
			"byteOffset":11520,
			"target":34963
		},
		{
			"buffer":0,
			"byteLength":3312,
			"byteOffset":12648,
			"target":34962
		},
		{
			"buffer":0,
			"byteLength":3312,
			"byteOffset":15960,
			"target":34962
		},
		{
			"buffer":0,
			"byteLength":2208,
			"byteOffset":19272,
			"target":34962
		},
		{
			"buffer":0,
			"byteLength":2208,
			"byteOffset":21480,
			"target":34962
		},
		{
			"buffer":0,
			"byteLength":1152,
			"byteOffset":23688,
			"target":34963
		},
		{
			"buffer":0,
			"byteLength":2640,
			"byteOffset":24840,
			"target":34962
		},
		{
			"buffer":0,
			"byteLength":2640,
			"byteOffset":27480,
			"target":34962
		},
		{
			"buffer":0,
			"byteLength":1760,
			"byteOffset":30120,
			"target":34962
		},
		{
			"buffer":0,
			"byteLength":1760,
			"byteOffset":31880,
			"target":34962
		},
		{
			"buffer":0,
			"byteLength":888,
			"byteOffset":33640,
			"target":34963
		},
		{
			"buffer":0,
			"byteLength":2676,
			"byteOffset":34528,
			"target":34962
		},
		{
			"buffer":0,
			"byteLength":2676,
			"byteOffset":37204,
			"target":34962
		},
		{
			"buffer":0,
			"byteLength":1784,
			"byteOffset":39880,
			"target":34962
		},
		{
			"buffer":0,
			"byteLength":1784,
			"byteOffset":41664,
			"target":34962
		},
		{
			"buffer":0,
			"byteLength":888,
			"byteOffset":43448,
			"target":34963
		},
		{
			"buffer":0,
			"byteLength":2820,
			"byteOffset":44336,
			"target":34962
		},
		{
			"buffer":0,
			"byteLength":2820,
			"byteOffset":47156,
			"target":34962
		},
		{
			"buffer":0,
			"byteLength":1880,
			"byteOffset":49976,
			"target":34962
		},
		{
			"buffer":0,
			"byteLength":1880,
			"byteOffset":51856,
			"target":34962
		},
		{
			"buffer":0,
			"byteLength":888,
			"byteOffset":53736,
			"target":34963
		},
		{
			"buffer":0,
			"byteLength":3456,
			"byteOffset":54624,
			"target":34962
		},
		{
			"buffer":0,
			"byteLength":3456,
			"byteOffset":58080,
			"target":34962
		},
		{
			"buffer":0,
			"byteLength":2304,
			"byteOffset":61536,
			"target":34962
		},
		{
			"buffer":0,
			"byteLength":2304,
			"byteOffset":63840,
			"target":34962
		},
		{
			"buffer":0,
			"byteLength":1128,
			"byteOffset":66144,
			"target":34963
		}
	],
	"buffers":[
		{
			"byteLength":67272,
			"uri":"data:application/octet-stream;base64,"
		}
	]
}
