{
	"asset":{
		"generator":"Khronos glTF Blender I/O v3.6.27",
		"version":"2.0"
	},
	"scene":0,
	"scenes":[
		{
			"name":"Scene",
			"nodes":[
				0
			]
		}
	],
	"nodes":[
		{
			"mesh":0,
			"name":"XD",
			"rotation":[
				0.7071068286895752,
				0,
				0,
				0.7071068286895752
			]
		}
	],
	"materials":[
		{
			"doubleSided":true,
			"name":"01",
			"pbrMetallicRoughness":{
				"baseColorFactor":[
					0.016682468354701996,
					0.016682468354701996,
					0.016682468354701996,
					1
				],
				"metallicFactor":0,
				"roughnessFactor":0.5
			}
		},
		{
			"doubleSided":true,
			"name":"02",
			"pbrMetallicRoughness":{
				"baseColorFactor":[
					1,
					0.28101685643196106,
					0.9916374683380127,
					1
				],
				"metallicFactor":0,
				"roughnessFactor":0.5
			}
		}
	],
	"meshes":[
		{
			"name":"Curve.011",
			"primitives":[
				{
					"attributes":{
						"POSITION":0,
						"NORMAL":1,
						"TEXCOORD_0":2
					},
					"indices":3,
					"material":0
				},
				{
					"attributes":{
						"POSITION":4,
						"NORMAL":5,
						"TEXCOORD_0":6
					},
					"indices":7,
					"material":1
				}
			]
		}
	],
	"accessors":[
		{
			"bufferView":0,
			"componentType":5126,
			"count":312,
			"max":[
				0.646037757396698,
				0.019047917798161507,
				0.648254930973053
			],
			"min":[
				-0.6126322150230408,
				-0.10927430540323257,
				-0.5727757811546326
			],
			"type":"VEC3"
		},
		{
			"bufferView":1,
			"componentType":5126,
			"count":312,
			"type":"VEC3"
		},
		{
			"bufferView":2,
			"componentType":5126,
			"count":312,
			"type":"VEC2"
		},
		{
			"bufferView":3,
			"componentType":5123,
			"count":612,
			"type":"SCALAR"
		},
		{
			"bufferView":4,
			"componentType":5126,
			"count":2935,
			"max":[
				0.3870197534561157,
				0.046836189925670624,
				0.2630435526371002
			],
			"min":[
				-0.3951224684715271,
				-0.037984177470207214,
				-0.2689233124256134
			],
			"type":"VEC3"
		},
		{
			"bufferView":5,
			"componentType":5126,
			"count":2935,
			"type":"VEC3"
		},
		{
			"bufferView":6,
			"componentType":5126,
			"count":2935,
			"type":"VEC2"
		},
		{
			"bufferView":7,
			"componentType":5123,
			"count":6348,
			"type":"SCALAR"
		}
	],
	"bufferViews":[
		{
			"buffer":0,
			"byteLength":3744,
			"byteOffset":0,
			"target":34962
		},
		{
			"buffer":0,
			"byteLength":3744,
			"byteOffset":3744,
			"target":34962
		},
		{
			"buffer":0,
			"byteLength":2496,
			"byteOffset":7488,
			"target":34962
		},
		{
			"buffer":0,
			"byteLength":1224,
			"byteOffset":9984,
			"target":34963
		},
		{
			"buffer":0,
			"byteLength":35220,
			"byteOffset":11208,
			"target":34962
		},
		{
			"buffer":0,
			"byteLength":35220,
			"byteOffset":46428,
			"target":34962
		},
		{
			"buffer":0,
			"byteLength":23480,
			"byteOffset":81648,
			"target":34962
		},
		{
			"buffer":0,
			"byteLength":12696,
			"byteOffset":105128,
			"target":34963
		}
	],
	"buffers":[
		{
			"byteLength":117824,
			"uri":"data:application/octet-stream;base64,"
		}
	]
}
